<svg width="83" height="84" viewBox="0 0 83 84" fill="none" xmlns="http://www.w3.org/2000/svg">
<path d="M22.4999 38.0998L38.0998 3C41.2028 3 44.1787 4.23267 46.3729 6.42683C48.567 8.62099 49.7997 11.5969 49.7997 14.6999V30.2998H71.8736C73.0042 30.287 74.1241 30.5202 75.1557 30.9832C76.1872 31.4462 77.1058 32.1279 77.8478 32.9811C78.5897 33.8344 79.1373 34.8387 79.4525 35.9246C79.7678 37.0104 79.8432 38.1519 79.6735 39.2698L74.2915 74.3695C74.0095 76.2295 73.0647 77.9248 71.6314 79.1431C70.198 80.3615 68.3727 81.0208 66.4916 80.9995H22.4999M22.4999 38.0998V80.9995M22.4999 38.0998H10.8C8.73127 38.0998 6.74733 38.9216 5.28455 40.3843C3.82178 41.8471 3 43.8311 3 45.8997V73.1996C3 75.2682 3.82178 77.2522 5.28455 78.7149C6.74733 80.1777 8.73127 80.9995 10.8 80.9995H22.4999" stroke="white" stroke-width="5" stroke-linecap="round" stroke-linejoin="round"/>
</svg>
