<svg width="62" height="58" viewBox="0 0 62 58" fill="none" xmlns="http://www.w3.org/2000/svg">
<path d="M33.7728 27.837C33.6304 27.577 33.4527 27.3381 33.2447 27.1271L30.8705 24.7793C30.6267 24.5305 30.3387 24.3293 30.0213 24.1862C29.5219 23.9629 28.9668 23.8963 28.4289 23.9952C27.891 24.0941 27.3956 24.3539 27.0077 24.7404C26.1844 25.5528 24.6776 27.035 21.9591 29.7279C16.7603 34.8842 7.10713 43.5264 2.74202 47.2122C2.5221 47.3967 2.34278 47.6249 2.21543 47.8825C2.08809 48.1401 2.01548 48.4214 2.00222 48.7086C1.98895 48.9958 2.03532 49.2826 2.13838 49.5509C2.24144 49.8192 2.39894 50.0631 2.60092 50.2672L7.64953 55.3845C7.85284 55.589 8.09613 55.7491 8.36412 55.8548C8.63211 55.9604 8.91901 56.0094 9.20678 55.9985C9.49455 55.9877 9.77697 55.9173 10.0363 55.7917C10.2956 55.6662 10.5262 55.4882 10.7136 55.269C14.4988 50.8084 23.1798 41.1228 28.319 36.0314C30.9586 33.428 32.4382 31.9329 33.2757 31.1075C33.6911 30.684 33.9627 30.14 34.052 29.5529C34.1412 28.9657 34.0435 28.3653 33.7728 27.837Z" stroke="#CC4330" stroke-width="4" stroke-linecap="round" stroke-linejoin="round"/>
<path d="M59.7939 21.867L55.3524 17.4544C55.2846 17.3865 55.2037 17.3332 55.1147 17.2977C55.0257 17.2623 54.9303 17.2454 54.8346 17.2481C54.7389 17.2465 54.6439 17.2639 54.5551 17.2993C54.4662 17.3347 54.3852 17.3874 54.3168 17.4544C54.157 17.6155 53.9624 17.7376 53.748 17.8112C53.5336 17.8847 53.3052 17.9079 53.0805 17.8788C52.5006 17.8152 51.8831 17.6348 51.4844 17.2481C50.5782 16.3578 51.6255 14.6057 50.8281 13.4844C49.9174 12.2573 48.9188 11.0984 47.8403 10.0166C46.9264 9.10816 43.3341 5.67283 37.2835 3.19919C35.3527 2.40614 33.2859 1.99879 31.1993 2C27.7883 2 25.1656 3.52624 24.209 4.40227C23.4478 5.09271 22.6555 6.18937 22.6555 6.18937C23.113 6.02216 23.5804 5.88346 24.0549 5.77406C25.0445 5.56145 26.06 5.49629 27.0685 5.58069C29.0828 5.74811 31.51 6.69552 32.8123 7.72079C34.9107 9.40796 35.813 11.6649 35.9541 14.5772C36.0576 16.7432 33.9825 19.4777 32.0136 21.7074C31.8404 21.9034 31.7491 22.1588 31.7587 22.4206C31.7684 22.6823 31.8782 22.9302 32.0654 23.1129L34.8149 25.8682C35.0065 26.0579 35.2641 26.1653 35.5333 26.1677C35.8025 26.1701 36.0621 26.0674 36.257 25.8812C38.0603 24.1278 40.2816 22.1863 41.5412 21.4089C42.8008 20.6315 43.817 20.4122 44.305 20.359C45.264 20.2659 46.228 20.4755 47.0623 20.9586C47.2092 21.0419 47.3435 21.1459 47.461 21.2674C48.2973 22.1188 48.2468 23.5101 47.3963 24.3485L47.1374 24.5938C47.0701 24.6602 47.0166 24.7394 46.9801 24.8267C46.9436 24.9141 46.9248 25.0078 46.9248 25.1025C46.9248 25.1972 46.9436 25.2909 46.9801 25.3783C47.0166 25.4656 47.0701 25.5448 47.1374 25.6112L51.5789 30.0238C51.647 30.0911 51.728 30.144 51.817 30.1792C51.9059 30.2144 52.0011 30.2313 52.0967 30.2289C52.2895 30.2316 52.4756 30.1579 52.6145 30.0238L59.7939 22.9053C59.9262 22.765 60 22.5793 60 22.3862C60 22.1931 59.9262 22.0073 59.7939 21.867Z" stroke="#CC4330" stroke-width="4" stroke-linecap="round" stroke-linejoin="round"/>
</svg>
