<svg width="70" height="56" viewBox="0 0 70 56" fill="none" xmlns="http://www.w3.org/2000/svg">
<path d="M32.8076 3.50785L3.50773 32.8077C1.57311 34.7423 1.47112 37.7866 3.28009 39.5955L13.1204 49.4358C14.9293 51.2448 17.9736 51.1428 19.9082 49.2082L49.208 19.9083C51.1427 17.9737 51.2446 14.9295 49.4357 13.1205L39.5954 3.28021C37.7864 1.47124 34.7422 1.57324 32.8076 3.50785ZM45.9279 16.6282L16.6281 45.9281C16.534 46.0222 16.4434 46.0603 16.4153 46.0884C16.4038 46.0999 16.4005 46.1098 16.4086 46.1213L6.63712 36.3894C6.63227 36.3614 6.64751 36.2281 6.78782 36.0878L9.88288 32.9927L14.803 37.9129L18.1044 34.6115L13.1843 29.6913L16.4857 26.39L23.0458 32.9501L26.3472 29.6487L19.7871 23.0886L23.0884 19.7872L28.0086 24.7073L31.31 21.4059L26.3898 16.4858L29.6912 13.1844L36.2514 19.7446L39.5528 16.4432L32.9926 9.883L36.0877 6.78794C36.2197 6.65918 36.335 6.63248 36.3071 6.59473L46.0787 16.3266C46.0835 16.3546 46.0683 16.4879 45.9279 16.6282Z" fill="#CC4330"/>
<path d="M51.225 50V41.15L46.725 48.6H45.375L40.95 41.125V50H38.1V36.65H41.375L46.125 45L51.1 36.65H54.025L54.05 50H51.225ZM68.2416 40.05V41.825H59.7416V40.425L64.2166 36.525C64.7333 36.0583 65.0833 35.6833 65.2666 35.4C65.4666 35.1 65.5666 34.8 65.5666 34.5C65.5666 34.1 65.3833 33.775 65.0166 33.525C64.6666 33.275 64.1333 33.15 63.4166 33.15C62.8499 33.15 62.3416 33.2417 61.8916 33.425C61.4416 33.6083 61.0833 33.8833 60.8166 34.25L59.2416 33.125C59.6749 32.5417 60.2583 32.0917 60.9916 31.775C61.7249 31.4417 62.5916 31.275 63.5916 31.275C64.9083 31.275 65.9416 31.5583 66.6916 32.125C67.4416 32.6917 67.8166 33.4333 67.8166 34.35C67.8166 34.8833 67.6833 35.3833 67.4166 35.85C67.1666 36.3167 66.6583 36.8833 65.8916 37.55L63.0416 40.05H68.2416Z" fill="black"/>
</svg>
