<svg width="25" height="24" viewBox="0 0 25 24" fill="none" xmlns="http://www.w3.org/2000/svg">
<path d="M9.88437 0.00300012L10.6438 0H14.3562L15.1167 0.00300012L16.0687 0.0130005L16.5198 0.0200008L16.9552 0.0310013L17.375 0.0450019L17.7792 0.0610025L18.1687 0.0820034L18.5437 0.107004L18.9031 0.137006L19.25 0.170007C21.0625 0.366015 22.3052 0.786033 23.2427 1.68607C24.1802 2.58611 24.6177 3.77816 24.8219 5.51923L24.8573 5.85224L24.8875 6.19826L24.9135 6.55827L24.9344 6.93129L24.9604 7.51931L24.9729 7.92933L24.9865 8.57336L24.9958 9.48839L25 10.4684L24.999 13.7816L24.9958 14.5116L24.9854 15.4256L24.9781 15.8587L24.9667 16.2767L24.9521 16.6797L24.9354 17.0677L24.9135 17.4417L24.8875 17.8017L24.8562 18.1468L24.8219 18.4798C24.6177 20.2198 24.1802 21.4129 23.2427 22.3129C22.3052 23.213 21.0635 23.633 19.25 23.829L18.9031 23.863L18.5427 23.892L18.1677 23.917L17.7792 23.937L17.1667 23.962L16.7396 23.974L16.0687 23.987L15.1156 23.996L14.0948 24L10.6438 23.999L9.88333 23.996L8.93125 23.986L8.48021 23.979L8.04479 23.968L7.625 23.954L7.22083 23.938L6.83125 23.917L6.45625 23.892L6.09687 23.862L5.75 23.829C3.9375 23.633 2.69479 23.213 1.75729 22.3129C0.819792 21.4129 0.382292 20.2208 0.178125 18.4798L0.142708 18.1468L0.1125 17.8007L0.0864583 17.4407L0.065625 17.0677L0.0395833 16.4797L0.0270833 16.0697L0.0135417 15.4256L0.00416667 14.5106L0 13.5306L0.00104167 10.2174L0.00416667 9.48739L0.0145833 8.57336L0.021875 8.14034L0.0333333 7.72232L0.0479167 7.3193L0.0645833 6.93129L0.0864583 6.55727L0.1125 6.19726L0.14375 5.85224L0.178125 5.51923C0.382292 3.77916 0.819792 2.58611 1.75729 1.68607C2.69479 0.786033 3.93646 0.366015 5.75 0.170007L6.09687 0.136006L6.45729 0.107004L6.83229 0.0820034L7.22083 0.0620026L7.83333 0.0370015L8.26042 0.025001L8.93125 0.0120005L9.88437 0.00300012ZM7.07292 7.2993H4.21875C4.35417 13.5396 7.60417 17.2897 13.3021 17.2897H13.625V13.7196C15.7187 13.9196 17.3021 15.3896 17.9375 17.2897H20.8958C20.0833 14.4496 17.9479 12.8795 16.6146 12.2795C17.9479 11.5395 19.8229 9.73941 20.2708 7.2993H17.5833C17 9.27939 15.2708 11.0795 13.625 11.2495V7.2993H10.9375V14.2196C9.27083 13.8196 7.16667 11.8795 7.07292 7.2993Z" fill="#C4C4C4"/>
</svg>
